# xmcd
#
# Track frame offsets:
#	150
#	87633
#	166229
#	201656
#
# Disc length: 3826 seconds
#
# Revision: 0
# Processed by: cddbd v1.4PL0 Copyright (c) Steve Scherf et al.
# Submitted via: EasyCDDAExtractor 5.0.5.1
#
DISCID=350ef004
DTITLE=Merzbow - Oersted
DYEAR=1996
DGENRE=Noise
TTITLE0=1
TTITLE1=2
TTITLE2=3
TTITLE3=4
EXTD=
EXTT0=
EXTT1=
EXTT2=
EXTT3=
PLAYORDER=
